<svg width="17" height="15" viewBox="0 0 17 15" fill="none" xmlns="http://www.w3.org/2000/svg">
<path d="M3.86608 1.29274C5.35545 0.761441 7.15638 1.15897 8.37743 3.05971L8.79408 3.70865L9.21629 3.06268C10.4606 1.15913 12.1735 0.802035 13.5486 1.33582C14.9554 1.88195 16.1115 3.39917 16.1043 5.46599C16.1018 6.16549 15.7251 7.0356 15.0572 8.00429C14.3996 8.95808 13.5076 9.9407 12.5803 10.853C11.6552 11.7631 10.7067 12.5916 9.94394 13.2382C9.56205 13.5619 9.22969 13.8374 8.96642 14.058C8.89086 14.1213 8.81916 14.1816 8.75289 14.2379C8.68287 14.1794 8.60761 14.1158 8.52796 14.0505C8.25304 13.8253 7.91393 13.5516 7.51429 13.2227C6.72129 12.5701 5.73286 11.7338 4.76791 10.8165C3.80065 9.89698 2.86989 8.90771 2.18527 7.94894C1.48888 6.97369 1.10195 6.10462 1.1044 5.41287C1.11188 3.34813 2.35342 1.83236 3.86608 1.29274Z" stroke="#FFA451"/>
</svg>
